<?xml version="1.0" encoding="UTF-8"?>
<svg width="90px" height="90px" viewBox="0 0 112 112" version="1.1" xmlns="http://www.w3.org/2000/svg" xmlns:xlink="http://www.w3.org/1999/xlink">
    <title>Metis</title>
    <g id="页面-1" stroke="none" stroke-width="1" fill="none" fill-rule="evenodd">
        <g id="Products" transform="translate(-1078.000000, -1945.000000)">
            <g id="Metis" transform="translate(1078.000000, 1945.000000)">
                <rect id="矩形" x="0" y="0" width="112" height="112"></rect>
                <g transform="translate(7.000000, 11.000000)" fill-rule="nonzero" id="资源-4">
                    <g transform="translate(0.000000, 0.000000)">
                        <circle id="椭圆形" fill="#FF1E97" cx="84.4600219" cy="58.6429354" r="3.54874042"></circle>
                        <path d="M20.3039165,11.7266831 L56.2103787,11.7266831 C59.7450011,11.7266831 62.6103787,14.5920607 62.6103787,18.1266831 L62.6103787,71.6348977 C62.6103787,75.1695201 59.7450011,78.0348977 56.2103787,78.0348977 L20.3039165,78.0348977 C16.7692941,78.0348977 13.9039165,75.1695201 13.9039165,71.6348977 L13.9039165,18.1266831 C13.9039165,14.5920607 16.7692941,11.7266831 20.3039165,11.7266831 Z" id="矩形" stroke="#000072" stroke-width="2" fill="#A21DF7" transform="translate(38.257148, 44.880790) rotate(-30.000000) translate(-38.257148, -44.880790) "></path>
                        <line x1="17.388828" y1="43.2059146" x2="45.0690033" y2="27.2365827" id="路径" stroke="#000072" stroke-width="2" fill="#FFDA00" stroke-linecap="round"></line>
                        <line x1="23.1555312" y1="53.2311062" x2="50.8357065" y2="37.2617744" id="路径" stroke="#000072" stroke-width="2" fill="#FFDA00" stroke-linecap="round"></line>
                        <line x1="28.9222344" y1="63.2562979" x2="56.6024096" y2="47.1982475" id="路径" stroke="#000072" stroke-width="2" fill="#FFDA00" stroke-linecap="round"></line>
                        <path d="M34.686434,9.64714677 L77.158066,9.64714677 C80.6926884,9.64714677 83.558066,12.5125244 83.558066,16.0471468 L83.558066,73.5565663 C83.558066,77.0911887 80.6926884,79.9565663 77.158066,79.9565663 L34.686434,79.9565663 C31.1518116,79.9565663 28.286434,77.0911887 28.286434,73.5565663 L28.286434,16.0471468 C28.286434,12.5125244 31.1518116,9.64714677 34.686434,9.64714677 Z" id="矩形" stroke="#000072" stroke-width="2" fill="#FFFFFF" transform="translate(55.922250, 44.801857) rotate(-30.000000) translate(-55.922250, -44.801857) "></path>
                        <path d="M58.0219058,28.0350493 L53.3198248,28.0350493 C52.3590179,28.0798096 51.5902148,28.8486126 51.5454545,29.8094195 L51.5454545,59.441402 C51.5454545,60.4213596 52.3398671,61.2157722 53.3198248,61.2157722 L58.0219058,61.2157722 C58.5206156,61.2333619 59.0036797,61.0401363 59.3526835,60.6834611 C59.6546419,60.341815 59.8134907,59.8970385 59.796276,59.441402 L59.796276,29.8094195 C59.8134907,29.353783 59.6546419,28.9090065 59.3526835,28.5673604 C59.0036797,28.2106852 58.5206156,28.0174596 58.0219058,28.0350493 Z M57.2234392,30.6078861 L57.2234392,33.5355969 L54.1182913,33.5355969 L54.1182913,30.6078861 L57.2234392,30.6078861 Z M54.0295728,58.6429354 L54.0295728,36.1971522 L57.1347207,36.1971522 L57.1347207,58.6429354 L54.0295728,58.6429354 Z" id="形状" fill="#000072"></path>
                        <path d="M67.7809419,28.0350493 L63.0788609,28.0350493 C62.118054,28.0798096 61.349251,28.8486126 61.3044907,29.8094195 L61.3044907,59.441402 C61.3044907,60.4213596 62.0989033,61.2157722 63.0788609,61.2157722 L67.7809419,61.2157722 C68.2796517,61.2333619 68.7627158,61.0401363 69.1117196,60.6834611 C69.4136781,60.341815 69.5725268,59.8970385 69.5553122,59.441402 L69.5553122,29.8094195 C69.5725268,29.353783 69.4136781,28.9090065 69.1117196,28.5673604 C68.7627158,28.2106852 68.2796517,28.0174596 67.7809419,28.0350493 Z M66.9824754,30.6078861 L66.9824754,33.5355969 L63.8773275,33.5355969 L63.8773275,30.6078861 L66.9824754,30.6078861 Z M63.788609,58.6429354 L63.788609,36.1971522 L66.8937568,36.1971522 L66.8937568,58.6429354 L63.788609,58.6429354 Z" id="形状" fill="#000072"></path>
                        <path d="M48.0854326,27.8576123 L43.2946331,27.8576123 C42.7959233,27.8400225 42.3128592,28.0332482 41.9638554,28.3899233 C41.6759148,28.7738442 41.5202629,29.2407999 41.5202629,29.720701 L41.5202629,59.3526835 C41.5269293,59.8207078 41.7182573,60.2671398 42.0525739,60.5947426 C42.3801767,60.9290593 42.8266087,61.1203873 43.2946331,61.1270537 L48.0854326,61.1270537 C49.0653902,61.1270537 49.8598028,60.3326411 49.8598028,59.3526835 L49.8598028,29.720701 C49.8773926,29.2219912 49.684167,28.7389271 49.3274918,28.3899233 C48.999889,28.0556067 48.553457,27.8642787 48.0854326,27.8576123 Z M47.286966,30.4304491 L47.286966,33.6243154 L44.0930997,33.6243154 L44.0930997,30.4304491 L47.286966,30.4304491 Z M44.0930997,58.5542169 L44.0930997,36.1971522 L47.286966,36.1971522 L47.286966,58.5542169 L44.0930997,58.5542169 Z" id="形状" fill="#000072"></path>
                        <circle id="椭圆形" fill="#FF1E97" cx="87.5651698" cy="59.0865279" r="3.54874042"></circle>
                    </g>
                </g>
            </g>
        </g>
    </g>
</svg>
